<?xml version="1.0" encoding="utf-8"?>
<!-- Generator: Adobe Illustrator 15.1.0, SVG Export Plug-In . SVG Version: 6.00 Build 0)  -->
<!DOCTYPE svg PUBLIC "-//W3C//DTD SVG 1.1//EN" "http://www.w3.org/Graphics/SVG/1.1/DTD/svg11.dtd">
<svg version="1.1" id="Layer_1" xmlns="http://www.w3.org/2000/svg" xmlns:xlink="http://www.w3.org/1999/xlink" x="0px" y="0px"
	 width="612px" height="612px" viewBox="-551 427 612 612" enable-background="new -551 427 612 612" xml:space="preserve">
<g id="Layer_2">
	<circle fill="#1E1E1E" cx="-245" cy="733" r="306"/>
	<g>
		<g>
			<path fill="#FFFFFF" d="M-310.79,706.99h-7.65v-25.5h-23.46v25.5h-7.649V651.4h7.649v23.46h23.46V651.4h7.65V706.99z"/>
			<path fill="#FFFFFF" d="M-262.34,658.03h-16.32v48.96h-7.65v-48.96h-16.32v-6.63h40.29L-262.34,658.03L-262.34,658.03z"/>
			<path fill="#FFFFFF" d="M-212.87,706.99h-7.14l-1.021-34.68l-0.51-13.261l-3.061,7.65l-8.16,21.93h-5.1l-7.65-21.42l-2.55-8.67
				v13.77l-1.02,33.66h-7.14l2.55-54.569h8.67l7.649,20.909l2.55,7.141l2.55-7.141l7.649-20.909h9.18L-212.87,706.99z"/>
			<path fill="#FFFFFF" d="M-169.521,706.99h-31.62V651.4h7.65v48.96h23.97V706.99z"/>
			<path fill="#FFFFFF" d="M-309.771,744.73h-16.83v48.959h-7.65V744.73h-16.32V738.1h40.29L-309.771,744.73L-309.771,744.73z"/>
			<path fill="#FFFFFF" d="M-272.03,793.689v-5.609c-2.55,2.04-4.59,4.08-7.14,5.1c-2.55,1.021-5.1,1.53-7.65,1.53
				c-2.55,0-4.59-0.51-6.12-1.021c-1.529-0.51-3.06-1.529-4.08-2.55c-1.02-1.02-2.04-2.55-2.55-4.08
				c-0.51-1.529-1.02-3.06-1.02-4.59c0-4.08,1.53-7.649,4.59-10.2c3.06-2.55,7.65-3.569,14.28-3.569h8.67v-3.57
				c0-2.55-1.021-4.59-2.55-6.12s-4.08-2.04-7.14-2.04c-2.55,0-4.59,0.51-7.14,1.021c-2.55,0.51-4.59,1.529-7.14,2.039V753.4
				c1.02-0.511,2.04-0.511,3.06-1.021s2.55-0.51,3.57-1.021c1.02-0.51,2.55-0.51,4.08-0.51s2.55,0,4.08,0
				c2.55,0,5.1,0.51,7.14,1.021c2.04,0.51,3.57,1.53,5.1,2.55c1.53,1.02,2.55,2.55,3.061,4.59c0.51,1.53,1.02,3.57,1.02,6.12v29.07
				h-6.12V793.689z M-273.05,774.311h-9.18c-2.04,0-3.57,0-4.59,0.51c-1.529,0.51-2.55,1.02-3.06,1.529
				c-0.51,0.511-1.53,1.53-2.04,2.551c-0.51,1.02-0.51,2.039-0.51,3.06s0,1.53,0.51,2.55c0.51,1.021,0.51,1.53,1.02,2.04
				c0.51,0.511,1.53,1.021,2.04,1.53s2.04,0.51,3.06,0.51c1.53,0,3.57-0.51,5.61-1.529c2.04-1.021,4.59-2.551,7.14-5.101V774.311z"
				/>
			<path fill="#FFFFFF" d="M-221.54,756.97c1.02,1.021,1.53,2.04,2.04,3.57s0.51,2.55,0.51,4.08c0,2.04-0.51,4.08-1.02,6.12
				c-1.021,2.04-2.04,3.57-3.57,4.59c-1.53,1.53-3.06,2.55-5.1,3.061c-2.04,0.51-4.08,1.02-6.63,1.02c-1.53,0-3.57,0-5.1-0.51
				s-2.55-1.021-3.57-1.53c-0.51,1.021-1.02,1.53-1.529,2.04c-0.511,0.51-0.511,1.53-0.511,2.55c0,1.021,0.511,2.04,1.53,2.55
				c1.02,0.511,2.55,1.021,4.08,1.021l11.22,0.51c2.04,0,4.08,0.511,5.61,1.021c2.04,0.51,3.57,1.02,4.59,2.04
				c1.53,1.02,2.04,2.04,3.06,3.569c0.51,1.53,1.02,3.061,1.02,4.59c0,2.041-0.51,3.57-1.02,5.61c-1.02,1.53-2.04,3.061-3.57,4.591
				c-1.53,1.529-4.08,2.549-6.63,3.06c-2.55,1.021-5.61,1.021-9.18,1.021s-6.12-0.511-8.67-1.021c-2.55-0.511-4.59-1.53-6.12-2.04
				c-1.529-1.02-2.55-2.04-3.57-3.57c-1.02-1.529-1.02-3.06-1.02-4.59c0-2.04,0.51-4.08,1.53-5.609c1.02-1.53,2.55-3.061,4.59-4.591
				c-0.51-0.51-1.53-0.51-2.04-1.02c-0.51-0.511-1.021-1.021-1.53-1.53s-0.51-1.02-0.51-2.04c0-1.02,0-1.53,0-2.04
				c0-2.04,0.51-3.57,1.53-5.1c1.02-1.53,2.04-3.061,3.06-4.08c-0.51-0.51-1.02-1.53-1.53-2.04c-0.51-0.51-0.51-1.53-1.02-2.04
				s-0.51-1.529-0.51-2.55s0-1.53,0-3.06c0-2.041,0.51-4.08,1.02-6.121c1.021-2.039,2.04-3.569,3.57-4.59
				c1.53-1.529,3.06-2.55,5.1-3.06c2.04-0.51,4.08-1.021,6.63-1.021c1.02,0,2.04,0,3.06,0c1.02,0,2.04,0.511,2.55,0.511h15.3v6.12
				h-7.649V756.97L-221.54,756.97z M-247.04,799.811c0,2.039,1.02,3.569,3.06,4.59c2.04,1.02,5.1,1.529,8.67,1.529
				c2.55,0,4.08,0,6.12-0.51s3.06-1.02,4.08-1.53c1.02-0.51,1.53-1.529,2.04-2.55c0.51-1.02,0.51-2.04,0.51-2.55
				c0-1.53-0.51-3.06-2.04-3.57c-1.53-1.02-3.57-1.53-6.63-1.53l-11.22-0.51c-1.02,0.51-1.53,1.021-2.55,2.04
				c-0.51,0.511-1.02,1.021-1.53,2.04c-0.51,1.021-0.51,1.021-0.51,2.04C-247.04,800.32-247.04,799.3-247.04,799.811z
				 M-244.49,765.13c0,1.53,0,2.55,0.51,3.57c0.51,1.02,1.02,2.04,2.04,3.06c1.021,1.021,2.04,1.53,3.061,2.04
				c1.02,0.511,2.55,0.511,3.57,0.511c1.53,0,2.55,0,4.08-0.511c1.02-0.51,2.04-1.02,3.06-2.04c1.02-1.02,1.53-2.04,1.53-3.06
				c0.51-1.021,0.51-2.04,0.51-3.57s0-2.55-0.51-3.57c-0.51-1.02-1.02-2.04-2.04-3.06c-1.021-1.021-1.53-1.53-3.061-2.04
				c-1.02-0.51-2.55-0.51-3.57-0.51c-1.53,0-2.55,0-4.08,0.51c-1.02,0.51-2.04,1.021-3.06,2.04c-1.02,1.02-1.53,2.04-1.53,3.06
				C-244.49,762.58-244.49,763.6-244.49,765.13z"/>
			<path fill="#FFFFFF" d="M-165.44,738.1l-3.57,55.08h-9.69l-7.14-19.38l-2.04-6.12l-2.04,6.63l-6.12,19.38h-9.69l-3.57-55.59h7.14
				l2.04,37.74l0.51,10.2l2.55-8.67l6.63-20.4h5.1l7.65,21.931l2.55,7.14v-7.65l2.04-40.29C-173.09,738.1-165.44,738.1-165.44,738.1
				z"/>
			<path fill="#FFFFFF" d="M-154.73,750.85h6.63v7.65c2.55-3.061,5.1-5.1,7.65-6.63s5.1-2.04,7.14-2.04c4.59,0,7.65,1.53,10.2,4.08
				c2.04,3.06,3.57,7.14,3.061,12.75h-7.65c0-3.57-0.51-6.63-1.53-8.16s-3.06-2.55-5.1-2.55c-1.02,0-2.04,0-3.06,0.51
				s-2.04,1.021-3.06,1.53c-1.02,1.02-2.04,1.529-3.57,3.06c-1.02,1.021-2.55,2.55-3.57,4.59v27.54h-7.65v-42.33H-154.73z"/>
			<path fill="#FFFFFF" d="M-81.8,793.689v-5.609c-2.55,2.04-4.59,4.08-7.141,5.1c-2.55,1.021-5.1,1.53-7.649,1.53
				c-2.55,0-4.59-0.51-6.12-1.021c-1.53-0.51-3.061-1.529-4.08-2.55c-1.02-1.02-2.04-2.55-2.55-4.08
				c-0.51-1.529-1.021-3.06-1.021-4.59c0-4.08,1.53-7.649,4.59-10.2c3.061-2.55,7.65-3.569,14.28-3.569h8.67v-3.57
				c0-2.55-1.02-4.59-2.55-6.12c-1.53-1.53-4.08-2.04-7.14-2.04c-2.55,0-4.59,0.51-7.14,1.021c-2.55,0.51-4.59,1.529-7.14,2.039
				V753.4c1.02-0.511,2.04-0.511,3.06-1.021s2.55-0.51,3.57-1.021c1.021-0.51,2.55-0.51,4.08-0.51c1.53,0,2.55,0,4.08,0
				c2.55,0,5.1,0.51,7.14,1.021c2.04,0.51,3.57,1.53,5.1,2.55s2.55,2.55,3.06,4.59c0.51,1.53,1.021,3.57,1.021,6.12v29.07h-6.12
				V793.689z M-82.31,774.311H-92c-2.04,0-3.57,0-4.59,0.51c-1.53,0.51-2.55,1.02-3.061,1.529c-0.51,0.51-1.529,1.53-2.04,2.551
				c-0.51,1.02-0.51,2.039-0.51,3.06s0,1.53,0.51,2.55c0.511,1.021,0.511,1.53,1.021,2.04c0.51,0.511,1.53,1.021,2.04,1.53
				c1.02,0.51,2.04,0.51,3.06,0.51c1.53,0,3.57-0.51,5.61-1.529c2.04-1.021,4.59-2.551,7.14-5.101v-7.649H-82.31z"/>
			<path fill="#FFFFFF" d="M-24.68,771.76c0,3.57-0.511,7.141-1.53,9.69c-1.02,3.06-2.55,5.1-4.59,7.14s-4.08,3.061-6.63,4.08
				c-2.55,1.02-5.1,1.53-8.16,1.53c-1.53,0-2.55,0-4.08,0c-1.53,0-2.55-0.511-4.08-0.511v17.851h-7.65v-60.69h6.63l0.51,7.141
				c2.04-3.061,4.59-5.101,6.63-6.12c2.04-1.021,5.1-1.53,7.65-1.53c2.55,0,4.59,0.51,6.63,1.53c2.04,1.02,3.57,2.55,4.59,4.079
				c1.02,1.53,2.04,4.08,2.55,6.631C-25.7,765.13-24.68,768.189-24.68,771.76z M-32.33,771.76c0-2.04,0-4.08-0.51-6.12
				c-0.51-2.04-1.021-3.569-1.53-4.59c-0.51-1.53-1.53-2.55-2.55-3.06c-1.021-0.51-2.55-1.021-4.08-1.021c-1.02,0-2.04,0-3.06,0.511
				c-1.02,0.51-2.04,1.02-3.06,1.529c-1.02,0.51-2.04,1.53-3.06,2.55c-1.021,1.021-2.55,2.55-3.57,4.08v20.4
				c1.53,0.51,2.55,1.02,4.08,1.53c1.53,0.51,3.06,0.51,4.59,0.51c4.08,0,7.14-1.53,9.18-4.08S-32.33,777.37-32.33,771.76z"/>
		</g>
		<g>
			<g>
				<g>
					<path fill="#00AEEF" d="M-382.19,609.58l-40.29-18.36v-7.14l40.29-19.38v10.2l-29.07,12.239v0.511l29.07,11.729V609.58z"/>
				</g>
				<g>
					<path fill="#00AEEF" d="M-270.5,590.2l-40.29,18.36v-10.2l29.07-11.73l0,0l-29.07-12.239v-10.2l40.29,19.38V590.2z"/>
				</g>
			</g>
			<g>
				<g>
					<rect x="-370.97" y="551.439" fill="#596877" width="44.88" height="71.91"/>
				</g>
			</g>
		</g>
		<g>
			<g>
				<g>
					<path fill="#00AEEF" d="M-382.19,896.2l-40.29-18.36v-7.14l40.29-19.38v10.199l-29.07,12.24v0.51l29.07,11.73V896.2z"/>
				</g>
				<g>
					<path fill="#00AEEF" d="M-335.78,836.53l-30.09,72.42h-12.24l30.09-72.42H-335.78z"/>
				</g>
				<g>
					<path fill="#00AEEF" d="M-232.25,876.82l-40.29,18.359V884.98l29.07-11.73l0,0l-29.07-12.24v-10.199l40.29,19.38V876.82z"/>
				</g>
			</g>
			<g>
				<g>
					<rect x="-329.15" y="835" fill="#596877" width="44.88" height="71.91"/>
				</g>
			</g>
		</g>
	</g>
</g>
</svg>
